<svg width="18" height="18" viewBox="0 0 18 18" fill="none" xmlns="http://www.w3.org/2000/svg">
<g clip-path="url(#clip0_2891_45465)">
<path d="M5.02346 5.59002C5.02346 5.24602 5.30446 4.96802 5.65146 4.96802H12.3495C12.6965 4.96802 12.9775 5.24602 12.9775 5.58902C12.9771 5.67105 12.9605 5.75219 12.9287 5.82782C12.8969 5.90344 12.8506 5.97205 12.7922 6.02973C12.7339 6.08741 12.6648 6.13302 12.5888 6.16396C12.5128 6.19489 12.4315 6.21054 12.3495 6.21002H5.65046C5.56852 6.21054 5.48727 6.19493 5.41136 6.16405C5.33545 6.13318 5.26637 6.08766 5.20805 6.03008C5.14974 5.97251 5.10333 5.90402 5.07149 5.82851C5.03964 5.753 5.02398 5.67196 5.02346 5.59002ZM6.69846 8.90102C6.69846 8.55802 6.97846 8.28102 7.32646 8.28102H10.6745C11.0215 8.28102 11.3025 8.55802 11.3025 8.90102C11.3022 8.98313 11.2857 9.06439 11.254 9.14012C11.2223 9.21586 11.1759 9.28459 11.1176 9.34238C11.0592 9.40016 10.9901 9.44586 10.914 9.47686C10.838 9.50786 10.7566 9.52354 10.6745 9.52302H7.32646C7.24435 9.52354 7.16294 9.50786 7.0869 9.47686C7.01086 9.44586 6.94169 9.40016 6.88335 9.34238C6.825 9.28459 6.77864 9.21586 6.74691 9.14012C6.71519 9.06439 6.69872 8.98313 6.69846 8.90102Z" fill="#7B879D"/>
<path fill-rule="evenodd" clip-rule="evenodd" d="M7.297 0H10.703C11.851 0 12.751 0 13.475 0.058C14.212 0.118 14.82 0.241 15.371 0.518C16.275 0.972182 17.0119 1.70104 17.476 2.6C17.757 3.145 17.882 3.747 17.942 4.476C18 5.19 18 6.082 18 7.218V8.348C18 9.63 18 10.412 17.805 11.069C17.5752 11.8378 17.1558 12.5364 16.5855 13.1008C16.0152 13.6652 15.3121 14.0772 14.541 14.299C13.876 14.491 13.085 14.491 11.789 14.491H11.156C10.431 14.4951 9.7242 14.7189 9.129 15.133L9.088 15.163L6.902 16.706C5.642 17.596 3.988 16.311 4.562 14.89C4.57995 14.8456 4.58665 14.7974 4.58151 14.7498C4.57638 14.7021 4.55956 14.6565 4.53255 14.6169C4.50554 14.5774 4.46918 14.5451 4.42669 14.5229C4.3842 14.5008 4.33691 14.4895 4.289 14.49H3.786C1.695 14.49 0 12.816 0 10.748V7.218C0 6.083 0 5.192 0.06 4.477C0.12 3.747 0.244 3.146 0.525 2.601C0.988565 1.70235 1.72474 0.973523 2.628 0.519C3.18 0.24 3.788 0.118 4.525 0.059C5.25 0 6.15 0 7.297 0ZM4.627 1.296C3.968 1.35 3.543 1.452 3.199 1.626C2.53128 1.96162 1.98694 2.50001 1.644 3.164C1.468 3.504 1.364 3.924 1.311 4.577C1.256 5.236 1.256 6.076 1.256 7.245V10.747C1.256 12.129 2.388 13.249 3.786 13.249H4.289C5.386 13.249 6.136 14.344 5.729 15.351C5.619 15.621 5.933 15.864 6.172 15.696L8.358 14.152L8.406 14.118C9.21098 13.5574 10.167 13.254 11.148 13.248H11.666C13.124 13.248 13.719 13.242 14.187 13.107C14.757 12.9432 15.2767 12.6387 15.6983 12.2217C16.12 11.8046 16.43 11.2882 16.6 10.72C16.738 10.256 16.744 9.668 16.744 8.226V7.246C16.744 6.076 16.744 5.236 16.689 4.576C16.635 3.925 16.532 3.504 16.356 3.164C16.0131 2.50001 15.4687 1.96162 14.801 1.626C14.457 1.452 14.031 1.35 13.373 1.296C12.706 1.243 11.857 1.242 10.674 1.242H7.326C6.143 1.242 5.294 1.242 4.627 1.296Z" fill="#7B879D"/>
</g>
<defs>
<clipPath id="clip0_2891_45465">
<rect width="18" height="17" fill="white"/>
</clipPath>
</defs>
</svg>
