<svg width="19" height="16" viewBox="0 0 19 16" fill="none" xmlns="http://www.w3.org/2000/svg">
<g clip-path="url(#clip0_2891_46691)">
<g clip-path="url(#clip1_2891_46691)">
<path d="M0.926829 10.0391C1.76098 11.1512 2.87317 12.6342 4.3561 13.8391C5.83902 15.0439 7.6 15.9708 9.54634 15.9708V14.8586C7.97073 14.8586 6.4878 14.1171 5.09756 13.0049C3.70732 11.8927 2.59512 10.5025 1.85366 9.39027L0.926829 10.0391ZM9.54634 15.9708C11.4927 15.9708 13.2537 15.0439 14.7366 13.8391C16.2195 12.6342 17.3317 11.1512 18.1659 10.0391L17.239 9.39027C16.4976 10.5025 15.3854 11.8 13.9951 12.9122C12.6049 14.0244 11.122 14.7659 9.54634 14.7659V15.9708ZM18.0732 5.961C17.239 4.84881 16.1268 3.36588 14.6439 2.161C13.2537 0.956126 11.4927 0.0292969 9.54634 0.0292969V1.14149C11.122 1.14149 12.6049 1.88296 13.9951 2.99515C15.3854 4.10735 16.4976 5.49759 17.239 6.5171L18.0732 5.961ZM9.54634 0.0292969C7.6 0.0292969 5.83902 0.956126 4.3561 2.161C2.87317 3.36588 1.76098 4.84881 0.926829 5.961L1.85366 6.60978C2.59512 5.49759 3.70732 4.20003 5.09756 3.08783C6.4878 1.97564 7.97073 1.23417 9.54634 1.23417V0.0292969ZM18.0732 10.0391C18.6293 9.29759 19 8.74149 19 8.00003H17.8878C17.8878 8.37076 17.7024 8.64881 17.1463 9.39027L18.0732 10.0391ZM17.239 6.60978C17.7951 7.44393 17.9805 7.6293 17.9805 8.00003H19.0927C19.0927 7.16588 18.722 6.70247 18.1659 5.961L17.239 6.60978ZM1.85366 9.39027C1.29756 8.64881 1.1122 8.37076 1.1122 8.00003H0C0 8.83418 0.370732 9.29759 0.926829 10.0391L1.85366 9.39027ZM0.926829 5.961C0.370732 6.70247 0 7.16588 0 8.00003H1.1122C1.1122 7.6293 1.29756 7.35125 1.85366 6.60978L0.926829 5.961ZM6.20976 8.00003C6.20976 9.85369 7.69268 11.3366 9.54634 11.3366V10.2244C8.34146 10.2244 7.32195 9.20491 7.32195 8.00003H6.20976ZM9.54634 11.3366C11.4 11.3366 12.8829 9.85369 12.8829 8.00003H11.7707C11.7707 9.20491 10.7512 10.2244 9.54634 10.2244V11.3366ZM12.8829 8.00003C12.8829 6.14637 11.4 4.66344 9.54634 4.66344V5.77564C10.7512 5.77564 11.7707 6.79515 11.7707 8.00003H12.8829ZM9.54634 4.66344C7.69268 4.66344 6.20976 6.14637 6.20976 8.00003H7.32195C7.32195 6.79515 8.34146 5.77564 9.54634 5.77564V4.66344Z" fill="#707D89"/>
</g>
</g>
<defs>
<clipPath id="clip0_2891_46691">
<rect width="19" height="16" fill="white"/>
</clipPath>
<clipPath id="clip1_2891_46691">
<rect width="19" height="15.9415" fill="white" transform="translate(0 0.0292969)"/>
</clipPath>
</defs>
</svg>
